<?xml version="1.0"?>


<svg width="420" height="600" viewBox="0 0 420 680" fill="none" xmlns="http://www.w3.org/2000/svg">
          
          <ellipse cx="210" cy="650" rx="120" ry="20" fill="#E3927A" opacity=".45"></ellipse>

          
          <path d="M112 168 C104 60 316 60 308 168 C314 270 304 348 282 392 C273 410 246 406 246 386 L246 168 L174 168 L174 386 C174 406 147 410 138 392 C116 348 106 270 112 168 Z" fill="#3B2A22"></path>

          
          <rect x="190" y="224" width="40" height="40" rx="16" fill="#C98A5E"></rect>
          <path d="M190 250 q20 14 40 0 v-10 q-20 12 -40 0 Z" fill="#B0744A"></path>

          
          <path d="M150 268 C150 250 178 252 210 252 C242 252 270 250 270 268 L284 470 C284 488 262 494 210 494 C158 494 136 488 136 470 Z" fill="#FF7A5C"></path>
          
          <path d="M186 254 L210 280 L234 254 C226 270 194 270 186 254 Z" fill="#FFF1E8"></path>
          
          <rect x="178" y="300" width="64" height="74" rx="12" fill="#E85C3E"></rect>
          <circle cx="194" cy="316" r="4" fill="#FFD2C2"></circle>
          <circle cx="226" cy="316" r="4" fill="#FFD2C2"></circle>
          
          <path d="M188 256 L182 304 L196 304 L200 268 Z" fill="#E85C3E"></path>
          <path d="M232 256 L238 304 L224 304 L220 268 Z" fill="#E85C3E"></path>

          
          <path d="M168 488 L162 624 L206 624 L210 488 Z" fill="#E85C3E"></path>
          
          <path d="M214 488 L218 624 L258 624 L252 488 Z" fill="#FF7A5C"></path>
          
          <path d="M150 624 q0 22 22 22 h28 q10 0 10 -14 v-8 Z" fill="#2B2320"></path>
          <path d="M214 624 v8 q0 14 10 14 h28 q22 0 22 -22 Z" fill="#2B2320"></path>
          <rect x="150" y="636" width="60" height="10" rx="5" fill="#FFF1E8"></rect>
          <rect x="214" y="636" width="60" height="10" rx="5" fill="#FFF1E8"></rect>

          
          <path d="M270 272 C292 280 296 330 290 372 C288 388 270 388 266 372 C260 332 256 286 270 272 Z" fill="#FF7A5C"></path>
          <circle cx="278" cy="386" r="18" fill="#C98A5E"></circle>

          
          <path d="M150 270 C128 280 120 320 128 350 L160 342 C156 312 158 286 168 274 Z" fill="#FF7A5C"></path>
          
          <path d="M128 348 C122 366 126 384 140 392 L168 372 C158 360 156 344 160 336 Z" fill="#C98A5E"></path>

          
          <g transform="translate(110 250)">
            
            <rect x="36" y="4" width="6" height="40" rx="3" fill="#8A8F98"></rect>
            
            <path d="M30 40 L48 40 L44 60 L34 60 Z" fill="#5B616B"></path>
            
            <rect x="14" y="58" width="52" height="44" rx="14" fill="#3B3F47"></rect>
            <rect x="20" y="66" width="22" height="14" rx="6" fill="#FF7A5C"></rect>
            
            <path d="M30 100 C28 124 30 150 40 162 L60 156 C54 140 56 116 58 100 Z" fill="#2B2E34"></path>
            
            <rect x="30" y="156" width="34" height="20" rx="6" fill="#FF7A5C"></rect>
          </g>
          
          <ellipse cx="150" cy="378" rx="17" ry="15" fill="#C98A5E" transform="rotate(-14 150 378)"></ellipse>

          
          <ellipse cx="210" cy="170" rx="62" ry="66" fill="#C98A5E"></ellipse>
          
          <circle cx="150" cy="178" r="11" fill="#C98A5E"></circle>
          <circle cx="270" cy="178" r="11" fill="#C98A5E"></circle>
          <circle cx="150" cy="182" r="3.5" fill="#FF7A5C"></circle>
          <circle cx="270" cy="182" r="3.5" fill="#FF7A5C"></circle>

          
          <path d="M150 176 C146 124 176 102 210 102 C244 102 274 124 270 176 C254 156 236 156 213 170 C211 156 209 156 207 170 C184 156 166 156 150 176 Z" fill="#3B2A22"></path>

          
          <path d="M180 150 q12 -8 24 -1" stroke="#3B2A22" stroke-width="4" stroke-linecap="round" fill="none"></path>
          <path d="M216 149 q12 -7 24 1" stroke="#3B2A22" stroke-width="4" stroke-linecap="round" fill="none"></path>
          
          <ellipse cx="190" cy="172" rx="6.5" ry="8.5" fill="#2B2320"></ellipse>
          <ellipse cx="230" cy="172" rx="6.5" ry="8.5" fill="#2B2320"></ellipse>
          <circle cx="192" cy="169" r="2.2" fill="#fff"></circle>
          <circle cx="232" cy="169" r="2.2" fill="#fff"></circle>
          
          <circle cx="172" cy="190" r="9" fill="#FF7A5C" opacity=".45"></circle>
          <circle cx="248" cy="190" r="9" fill="#FF7A5C" opacity=".45"></circle>
          
          <path d="M208 182 q2 6 4 0" stroke="#B0744A" stroke-width="3" stroke-linecap="round" fill="none"></path>
          
          <path d="M196 196 C204 208 216 208 224 196" stroke="#2B2320" stroke-width="4" stroke-linecap="round" fill="none"></path>
        </svg>