<svg width="100%" viewBox="0 0 680 620" role="img" xmlns="http://www.w3.org/2000/svg">
<title>Mascote ShareTools</title>
<desc>Bonequinho com cabelo cacheado loiro, barba, sorriso e ferramentas nas mãos</desc>

<defs>
  <clipPath id="hair-clip">
    <rect x="240" y="60" width="200" height="110"/>
  </clipPath>
</defs>

<ellipse cx="340" cy="590" rx="100" ry="14" fill="#f97316" opacity="0.15"/>

<!-- PERNAS -->
<rect x="274" y="430" width="52" height="110" rx="18" fill="#1e293b"/>
<rect x="354" y="430" width="52" height="110" rx="18" fill="#1e293b"/>
<ellipse cx="300" cy="542" rx="32" ry="14" fill="#111827"/>
<rect x="268" y="530" width="64" height="14" rx="7" fill="#111827"/>
<ellipse cx="380" cy="542" rx="32" ry="14" fill="#111827"/>
<rect x="348" y="530" width="64" height="14" rx="7" fill="#111827"/>

<!-- CORPO -->
<rect x="248" y="270" width="184" height="175" rx="30" fill="#f97316"/>
<rect x="308" y="310" width="64" height="22" rx="6" fill="white" opacity="0.9"/>
<text x="340" y="326" text-anchor="middle" font-family="Inter,Arial,sans-serif" font-weight="800" font-size="9" fill="#f97316">ShareTools</text>

<!-- BRAÇO ESQUERDO -->
<rect x="184" y="278" width="68" height="36" rx="18" fill="#f97316"/>
<ellipse cx="196" cy="340" rx="22" ry="22" fill="#d4956a"/>
<rect x="118" y="300" width="90" height="42" rx="10" fill="#374151"/>
<rect x="118" y="300" width="90" height="20" rx="8" fill="#4b5563"/>
<rect x="104" y="314" width="24" height="10" rx="5" fill="#6b7280"/>
<rect x="80" y="317" width="26" height="4" rx="2" fill="#9ca3af"/>
<rect x="148" y="336" width="14" height="22" rx="6" fill="#4b5563"/>
<rect x="178" y="304" width="24" height="12" rx="4" fill="#f97316"/>

<!-- BRAÇO DIREITO -->
<rect x="428" y="278" width="68" height="36" rx="18" fill="#f97316"/>
<ellipse cx="484" cy="340" rx="22" ry="22" fill="#d4956a"/>
<rect x="488" y="286" width="18" height="88" rx="8" fill="#374151"/>
<rect x="476" y="284" width="42" height="30" rx="8" fill="#4b5563"/>
<rect x="482" y="292" width="12" height="14" rx="4" fill="#fff7ed"/>
<rect x="488" y="330" width="18" height="14" rx="4" fill="#f97316"/>

<!-- PESCOÇO -->
<rect x="316" y="248" width="48" height="30" rx="12" fill="#d4956a"/>

<!-- CABEÇA -->
<ellipse cx="340" cy="208" rx="88" ry="92" fill="#d4956a"/>

<!-- CABELO LOIRO CLIPADO -->
<g clip-path="url(#hair-clip)">
  <ellipse cx="340" cy="130" rx="90" ry="62" fill="#c8962a"/>
  <circle cx="264" cy="145" r="30" fill="#b8831e"/>
  <circle cx="284" cy="118" r="27" fill="#b8831e"/>
  <circle cx="312" cy="102" r="28" fill="#b8831e"/>
  <circle cx="340" cy="96"  r="32" fill="#b8831e"/>
  <circle cx="368" cy="102" r="28" fill="#b8831e"/>
  <circle cx="396" cy="118" r="27" fill="#b8831e"/>
  <circle cx="416" cy="145" r="30" fill="#b8831e"/>
  <circle cx="272" cy="132" r="20" fill="#d4a030"/>
  <circle cx="304" cy="108" r="22" fill="#d4a030"/>
  <circle cx="340" cy="96"  r="24" fill="#d4a030"/>
  <circle cx="376" cy="108" r="22" fill="#d4a030"/>
  <circle cx="408" cy="132" r="20" fill="#d4a030"/>
  <circle cx="294" cy="110" r="13" fill="#e8c060"/>
  <circle cx="340" cy="90"  r="15" fill="#e8c060"/>
  <circle cx="386" cy="110" r="13" fill="#e8c060"/>
</g>

<!-- ORELHAS -->
<ellipse cx="254" cy="214" rx="16" ry="20" fill="#d4956a"/>
<ellipse cx="426" cy="214" rx="16" ry="20" fill="#d4956a"/>

<!-- SOBRANCELHAS -->
<path d="M298 178 Q312 170 326 176" fill="none" stroke="#b8831e" stroke-width="5" stroke-linecap="round"/>
<path d="M354 176 Q368 170 382 178" fill="none" stroke="#b8831e" stroke-width="5" stroke-linecap="round"/>

<!-- OLHOS -->
<ellipse cx="312" cy="200" rx="14" ry="15" fill="white"/>
<ellipse cx="368" cy="200" rx="14" ry="15" fill="white"/>
<circle cx="314" cy="202" r="9" fill="#3d2a1a"/>
<circle cx="370" cy="202" r="9" fill="#3d2a1a"/>
<circle cx="316" cy="199" r="3" fill="white"/>
<circle cx="372" cy="199" r="3" fill="white"/>

<!-- NARIZ -->
<ellipse cx="340" cy="224" rx="10" ry="7" fill="#c07850"/>
<circle cx="334" cy="226" r="4" fill="#b06840"/>
<circle cx="346" cy="226" r="4" fill="#b06840"/>

<!-- SORRISO -->
<path d="M304 244 Q340 276 376 244" fill="none" stroke="#7c3a1a" stroke-width="4.5" stroke-linecap="round"/>
<path d="M310 246 Q340 268 370 246 Q340 264 310 246" fill="white"/>

<!-- BARBA -->
<path d="M276 236 Q282 266 292 276 Q340 298 388 276 Q398 266 404 236" fill="#c8962a" opacity="0.45"/>
<path d="M320 240 Q330 248 340 245 Q350 248 360 240" fill="#b8831e" opacity="0.6"/>

</svg>
